<?xml version="1.0" encoding="utf-8"?>
<!-- Generator: Adobe Illustrator 24.3.0, SVG Export Plug-In . SVG Version: 6.00 Build 0)  -->
<svg version="1.1" id="圖層_1" xmlns="http://www.w3.org/2000/svg" xmlns:xlink="http://www.w3.org/1999/xlink" x="0px" y="0px"
	 viewBox="0 0 18 17" style="enable-background:new 0 0 18 17;" xml:space="preserve">
<style type="text/css">
	.st0{enable-background:new    ;}
	.st1{fill:#FFFFFF;}
</style>
<desc>Created with Sketch.</desc>
<g id="Page-1">
	<g class="st0">
		<path class="st1" d="M1.5,8.9c0.4,0,0.9,0,1.7,0h3.3v0.9H3.2l1.6,1.5C4.9,11.5,5,11.7,5,12s-0.1,0.4-0.3,0.6
			c-0.2,0.2-0.4,0.3-0.6,0.3c-0.2,0-0.4-0.1-0.6-0.3L0.9,10C0.7,9.8,0.5,9.6,0.3,9.3C0.1,9,0.3,8.9,0.9,8.9C0.9,8.9,1.1,8.9,1.5,8.9
			z M5.2,7.8c-0.4,0-0.9,0-1.7,0H0.2V7h3.3L1.9,5.4C1.8,5.2,1.7,5,1.7,4.8s0.1-0.5,0.3-0.6C2.1,4,2.3,3.9,2.6,3.9
			C2.8,3.9,3,4,3.2,4.2l2.6,2.6C6,6.9,6.2,7.2,6.4,7.4c0.2,0.3,0,0.4-0.6,0.4C5.8,7.8,5.6,7.8,5.2,7.8z M15.3,7.5
			c0.1,0.5,0.1,1.1-0.1,1.7s-0.5,1.4-0.8,2.1s-0.7,1.4-1.2,2.1c-0.4,0.7-0.9,1.3-1.2,1.9c-0.1,0.1-0.2,0.2-0.3,0.2
			c-0.1,0.1-0.3,0.1-0.4,0.1c-0.1,0-0.3,0-0.4-0.1c-0.1-0.1-0.2-0.1-0.3-0.2c-0.2-0.3-0.4-0.6-0.6-0.9c-0.2-0.3-0.4-0.6-0.6-0.9
			L6,16.8l-0.5-0.5l3.4-3.4c-0.4-0.6-0.7-1.2-1-1.8c-0.3-0.6-0.5-1.2-0.7-1.8S7,8.2,7,7.7c0-0.5,0.2-0.8,0.5-1.1
			c0.2-0.2,0.5-0.4,0.8-0.5C8.7,6,9,5.9,9.4,5.8C9,5.5,8.8,5.2,8.6,4.8C8.4,4.4,8.3,4,8.3,3.5c0-0.8,0.3-1.5,0.9-2.1
			c0.6-0.6,1.3-0.9,2.1-0.9c0.8,0,1.5,0.3,2.1,0.9c0.6,0.6,0.9,1.3,0.9,2.1c0,0.5-0.1,0.9-0.3,1.3c-0.2,0.4-0.5,0.7-0.8,1
			c0.4,0.1,0.7,0.2,1,0.3c0.3,0.1,0.6,0.3,0.8,0.5c0,0,0.1,0.1,0.1,0.1c0,0,0.1,0.1,0.1,0.1l2.3-2.3L17.8,5L15.3,7.5z M11.2,13.3
			c0.5-0.7,0.9-1.4,1.2-2c0.4-0.7,0.7-1.3,0.9-1.8c0.1-0.3,0.2-0.6,0.3-0.8c0.1-0.2,0.1-0.4,0.1-0.6c0,0,0-0.1,0-0.1s0-0.1,0-0.1
			c-0.3-0.2-0.6-0.4-1.1-0.5c-0.5-0.1-0.9-0.1-1.4-0.1c-0.5,0-1,0-1.4,0.1C9.3,7.5,8.9,7.7,8.7,7.9C8.6,8.1,8.7,8.5,9,9.2
			c0.3,0.7,0.7,1.5,1.2,2.4c0.1,0.1,0.1,0.2,0.2,0.3s0.1,0.2,0.2,0.3c0.1,0.2,0.2,0.3,0.3,0.5C11,12.9,11.1,13.1,11.2,13.3z
			 M11.2,2.3c-0.4,0-0.6,0.1-0.9,0.4c-0.2,0.2-0.4,0.5-0.4,0.9c0,0.3,0.1,0.6,0.4,0.9c0.2,0.2,0.5,0.4,0.9,0.4
			c0.3,0,0.6-0.1,0.9-0.4c0.2-0.2,0.4-0.5,0.4-0.9c0-0.4-0.1-0.6-0.4-0.9C11.8,2.4,11.5,2.3,11.2,2.3z"/>
	</g>
</g>
</svg>
