<?xml version="1.0" encoding="utf-8"?>
<!-- Generator: Adobe Illustrator 24.3.0, SVG Export Plug-In . SVG Version: 6.00 Build 0)  -->
<svg version="1.1" id="圖層_1" xmlns="http://www.w3.org/2000/svg" xmlns:xlink="http://www.w3.org/1999/xlink" x="0px" y="0px"
	 viewBox="0 0 12 12" style="enable-background:new 0 0 12 12;" xml:space="preserve">
<style type="text/css">
	.st0{fill-rule:evenodd;clip-rule:evenodd;fill:#57D998;}
</style>
<path id="path-1_1_" class="st0" d="M6,0C2.7,0,0,2.7,0,6s2.7,6,6,6s6-2.7,6-6S9.3,0,6,0z M5.1,2.7h1.8c0.2,0,0.3,0.1,0.3,0.3l0,0v3
	h1.1C8.5,6,8.6,6,8.6,6.2c0.1,0.1,0,0.3-0.1,0.4l0,0L6.2,8.9C6.2,9,6.1,9,6,9C5.9,9,5.8,9,5.8,8.9l0,0L3.4,6.5
	C3.3,6.4,3.3,6.3,3.4,6.2C3.4,6,3.5,6,3.7,6l0,0h1.1V3C4.8,2.8,4.9,2.7,5.1,2.7L5.1,2.7z"/>
</svg>
