<?xml version="1.0" encoding="utf-8"?>
<!-- Generator: Adobe Illustrator 24.3.0, SVG Export Plug-In . SVG Version: 6.00 Build 0)  -->
<svg version="1.1" id="圖層_1" xmlns="http://www.w3.org/2000/svg" xmlns:xlink="http://www.w3.org/1999/xlink" x="0px" y="0px"
	 viewBox="0 0 12 12" style="enable-background:new 0 0 12 12;" xml:space="preserve">
<style type="text/css">
	.st0{fill-rule:evenodd;clip-rule:evenodd;fill:#FD6D99;}
</style>
<path id="path-1_1_" class="st0" d="M6,12c3.3,0,6-2.7,6-6S9.3,0,6,0S0,2.7,0,6S2.7,12,6,12z M6.9,9.3H5.1C4.9,9.3,4.8,9.2,4.8,9
	l0,0V6H3.7C3.5,6,3.4,6,3.4,5.8c-0.1-0.1,0-0.3,0.1-0.4l0,0l2.3-2.4C5.8,3,5.9,3,6,3c0.1,0,0.2,0,0.2,0.1l0,0l2.3,2.4
	c0.1,0.1,0.1,0.2,0.1,0.4C8.6,6,8.5,6,8.3,6l0,0H7.2v3C7.2,9.2,7.1,9.3,6.9,9.3L6.9,9.3z"/>
</svg>
